# xmcd CD database file
#
# Track frame offsets:
#	150
#	34308
#	63264
#	99270
#	128857
#	161547
#	194322
#	225500
#	252238
#	281568
#	313091
#
# Disc length: 4496 seconds
#
# Revision: 0
# Processed by: cddbd v1.5PL3 Copyright (c) Steve Scherf et al.
# Submitted via: CDex 1.60beta1
#
DISCID=91118e0b
DTITLE=Black Eagle Jazz Band - Hear Me Talkin' to Ya
DYEAR=2000
DGENRE=Jazz
TTITLE0=Sing On
TTITLE1=True I'm Just Crazy Over You
TTITLE2=Deep Henderson
TTITLE3=The Love Nest
TTITLE4=Blues in My Heart
TTITLE5=Weather Bird Rag
TTITLE6=Louisian-I-A
TTITLE7=Creole Love Call
TTITLE8=Blue Bells Goodbye
TTITLE9=Lotus Blossom
TTITLE10=Hear Me Talkin' to Ya
EXTD=YEAR: 2000
EXTT0=
EXTT1=
EXTT2=
EXTT3=
EXTT4=
EXTT5=
EXTT6=
EXTT7=
EXTT8=
EXTT9=
EXTT10=
PLAYORDER=
